<mxfile host="app.diagrams.net" agent="Mozilla/5.0 (Windows NT 10.0; Win64; x64) AppleWebKit/537.36 (KHTML, like Gecko) Chrome/131.0.0.0 Safari/537.36 Edg/131.0.0.0" version="26.0.4">
  <diagram name="Page-1" id="zuN4yHG53Kgcn2PTzHZ4">
    <mxGraphModel dx="1226" dy="604" grid="1" gridSize="10" guides="1" tooltips="1" connect="1" arrows="1" fold="1" page="1" pageScale="1" pageWidth="827" pageHeight="1169" math="0" shadow="0">
      <root>
        <mxCell id="0" />
        <mxCell id="1" parent="0" />
        <mxCell id="9hTT-3QMh48o3hA_7Nlj-1" value="Admin" style="rounded=0;whiteSpace=wrap;html=1;" vertex="1" parent="1">
          <mxGeometry x="100" y="240" width="140" height="40" as="geometry" />
        </mxCell>
        <mxCell id="9hTT-3QMh48o3hA_7Nlj-15" style="edgeStyle=orthogonalEdgeStyle;rounded=0;orthogonalLoop=1;jettySize=auto;html=1;entryX=0.25;entryY=1;entryDx=0;entryDy=0;" edge="1" parent="1" source="9hTT-3QMh48o3hA_7Nlj-2" target="9hTT-3QMh48o3hA_7Nlj-1">
          <mxGeometry relative="1" as="geometry">
            <Array as="points">
              <mxPoint x="430" y="370" />
              <mxPoint x="135" y="370" />
            </Array>
          </mxGeometry>
        </mxCell>
        <mxCell id="9hTT-3QMh48o3hA_7Nlj-2" value="Report Generation" style="ellipse;whiteSpace=wrap;html=1;" vertex="1" parent="1">
          <mxGeometry x="360" y="190" width="190" height="120" as="geometry" />
        </mxCell>
        <mxCell id="9hTT-3QMh48o3hA_7Nlj-3" value="0" style="text;html=1;align=center;verticalAlign=middle;whiteSpace=wrap;rounded=0;" vertex="1" parent="1">
          <mxGeometry x="425" y="200" width="60" height="30" as="geometry" />
        </mxCell>
        <mxCell id="9hTT-3QMh48o3hA_7Nlj-19" style="edgeStyle=orthogonalEdgeStyle;rounded=0;orthogonalLoop=1;jettySize=auto;html=1;" edge="1" parent="1" source="9hTT-3QMh48o3hA_7Nlj-4" target="9hTT-3QMh48o3hA_7Nlj-2">
          <mxGeometry relative="1" as="geometry">
            <Array as="points">
              <mxPoint x="520" y="150" />
              <mxPoint x="520" y="150" />
            </Array>
          </mxGeometry>
        </mxCell>
        <mxCell id="9hTT-3QMh48o3hA_7Nlj-22" style="edgeStyle=orthogonalEdgeStyle;rounded=0;orthogonalLoop=1;jettySize=auto;html=1;entryX=0.5;entryY=0;entryDx=0;entryDy=0;" edge="1" parent="1" source="9hTT-3QMh48o3hA_7Nlj-4" target="9hTT-3QMh48o3hA_7Nlj-2">
          <mxGeometry relative="1" as="geometry" />
        </mxCell>
        <mxCell id="9hTT-3QMh48o3hA_7Nlj-34" style="edgeStyle=orthogonalEdgeStyle;rounded=0;orthogonalLoop=1;jettySize=auto;html=1;entryX=0.421;entryY=-0.021;entryDx=0;entryDy=0;entryPerimeter=0;" edge="1" parent="1" source="9hTT-3QMh48o3hA_7Nlj-4" target="9hTT-3QMh48o3hA_7Nlj-2">
          <mxGeometry relative="1" as="geometry">
            <mxPoint x="440" y="180" as="targetPoint" />
            <Array as="points">
              <mxPoint x="440" y="100" />
              <mxPoint x="440" y="100" />
            </Array>
          </mxGeometry>
        </mxCell>
        <mxCell id="9hTT-3QMh48o3hA_7Nlj-4" value="Suppiler" style="rounded=0;whiteSpace=wrap;html=1;" vertex="1" parent="1">
          <mxGeometry x="382.5" y="20" width="145" height="40" as="geometry" />
        </mxCell>
        <mxCell id="9hTT-3QMh48o3hA_7Nlj-6" value="Customer" style="rounded=0;whiteSpace=wrap;html=1;" vertex="1" parent="1">
          <mxGeometry x="670" y="240" width="130" height="40" as="geometry" />
        </mxCell>
        <mxCell id="9hTT-3QMh48o3hA_7Nlj-7" style="edgeStyle=orthogonalEdgeStyle;rounded=0;orthogonalLoop=1;jettySize=auto;html=1;entryX=0.242;entryY=0.038;entryDx=0;entryDy=0;entryPerimeter=0;" edge="1" parent="1" source="9hTT-3QMh48o3hA_7Nlj-1" target="9hTT-3QMh48o3hA_7Nlj-2">
          <mxGeometry relative="1" as="geometry">
            <Array as="points">
              <mxPoint x="170" y="195" />
            </Array>
          </mxGeometry>
        </mxCell>
        <mxCell id="9hTT-3QMh48o3hA_7Nlj-8" value="Fetch&amp;nbsp; Sales Report" style="text;html=1;align=center;verticalAlign=middle;whiteSpace=wrap;rounded=0;" vertex="1" parent="1">
          <mxGeometry x="190" y="170" width="180" height="30" as="geometry" />
        </mxCell>
        <mxCell id="9hTT-3QMh48o3hA_7Nlj-11" style="edgeStyle=orthogonalEdgeStyle;rounded=0;orthogonalLoop=1;jettySize=auto;html=1;entryX=0.006;entryY=0.585;entryDx=0;entryDy=0;entryPerimeter=0;" edge="1" parent="1" source="9hTT-3QMh48o3hA_7Nlj-1" target="9hTT-3QMh48o3hA_7Nlj-2">
          <mxGeometry relative="1" as="geometry" />
        </mxCell>
        <mxCell id="9hTT-3QMh48o3hA_7Nlj-12" value="Fetch Payment&lt;div&gt;&amp;nbsp;Report&lt;/div&gt;" style="text;html=1;align=center;verticalAlign=middle;whiteSpace=wrap;rounded=0;" vertex="1" parent="1">
          <mxGeometry x="230" y="230" width="140" height="30" as="geometry" />
        </mxCell>
        <mxCell id="9hTT-3QMh48o3hA_7Nlj-13" style="edgeStyle=orthogonalEdgeStyle;rounded=0;orthogonalLoop=1;jettySize=auto;html=1;entryX=0.5;entryY=1;entryDx=0;entryDy=0;exitX=0.288;exitY=0.918;exitDx=0;exitDy=0;exitPerimeter=0;" edge="1" parent="1" source="9hTT-3QMh48o3hA_7Nlj-2" target="9hTT-3QMh48o3hA_7Nlj-1">
          <mxGeometry relative="1" as="geometry">
            <mxPoint x="387.8467741527062" y="325" as="sourcePoint" />
            <mxPoint x="172.15999999999997" y="310" as="targetPoint" />
            <Array as="points">
              <mxPoint x="415" y="325" />
              <mxPoint x="170" y="325" />
            </Array>
          </mxGeometry>
        </mxCell>
        <mxCell id="9hTT-3QMh48o3hA_7Nlj-14" value="Sends Purchase Report" style="text;html=1;align=center;verticalAlign=middle;whiteSpace=wrap;rounded=0;" vertex="1" parent="1">
          <mxGeometry x="220" y="300" width="150" height="30" as="geometry" />
        </mxCell>
        <mxCell id="9hTT-3QMh48o3hA_7Nlj-16" value="Sends Sales Report" style="text;html=1;align=center;verticalAlign=middle;whiteSpace=wrap;rounded=0;" vertex="1" parent="1">
          <mxGeometry x="220" y="370" width="150" height="30" as="geometry" />
        </mxCell>
        <mxCell id="9hTT-3QMh48o3hA_7Nlj-17" style="edgeStyle=orthogonalEdgeStyle;rounded=0;orthogonalLoop=1;jettySize=auto;html=1;entryX=0.5;entryY=1;entryDx=0;entryDy=0;" edge="1" parent="1" target="9hTT-3QMh48o3hA_7Nlj-2">
          <mxGeometry relative="1" as="geometry">
            <mxPoint x="120" y="280" as="sourcePoint" />
            <Array as="points">
              <mxPoint x="135" y="280" />
              <mxPoint x="120" y="280" />
              <mxPoint x="120" y="410" />
              <mxPoint x="455" y="410" />
            </Array>
          </mxGeometry>
        </mxCell>
        <mxCell id="9hTT-3QMh48o3hA_7Nlj-18" value="Sends Validation of Report" style="text;html=1;align=center;verticalAlign=middle;whiteSpace=wrap;rounded=0;" vertex="1" parent="1">
          <mxGeometry x="210" y="410" width="190" height="30" as="geometry" />
        </mxCell>
        <mxCell id="9hTT-3QMh48o3hA_7Nlj-21" value="Sends Sales Data" style="text;html=1;align=center;verticalAlign=middle;whiteSpace=wrap;rounded=0;rotation=90;" vertex="1" parent="1">
          <mxGeometry x="480" y="110" width="120" height="30" as="geometry" />
        </mxCell>
        <mxCell id="9hTT-3QMh48o3hA_7Nlj-23" value="Sends Inventory Data" style="text;html=1;align=center;verticalAlign=middle;whiteSpace=wrap;rounded=0;rotation=90;" vertex="1" parent="1">
          <mxGeometry x="414" y="110" width="120" height="30" as="geometry" />
        </mxCell>
        <mxCell id="9hTT-3QMh48o3hA_7Nlj-24" value="" style="endArrow=classic;html=1;rounded=0;exitX=0.75;exitY=1;exitDx=0;exitDy=0;entryX=0.676;entryY=-0.003;entryDx=0;entryDy=0;entryPerimeter=0;" edge="1" parent="1" source="9hTT-3QMh48o3hA_7Nlj-4" target="9hTT-3QMh48o3hA_7Nlj-2">
          <mxGeometry width="50" height="50" relative="1" as="geometry">
            <mxPoint x="850" y="20" as="sourcePoint" />
            <mxPoint x="900" y="-30" as="targetPoint" />
          </mxGeometry>
        </mxCell>
        <mxCell id="9hTT-3QMh48o3hA_7Nlj-25" value="Sends Stocks Report" style="text;html=1;align=center;verticalAlign=middle;whiteSpace=wrap;rounded=0;rotation=90;" vertex="1" parent="1">
          <mxGeometry x="440" y="110" width="140" height="30" as="geometry" />
        </mxCell>
        <mxCell id="9hTT-3QMh48o3hA_7Nlj-26" style="edgeStyle=orthogonalEdgeStyle;rounded=0;orthogonalLoop=1;jettySize=auto;html=1;entryX=0.979;entryY=0.298;entryDx=0;entryDy=0;entryPerimeter=0;" edge="1" parent="1" source="9hTT-3QMh48o3hA_7Nlj-6" target="9hTT-3QMh48o3hA_7Nlj-2">
          <mxGeometry relative="1" as="geometry">
            <Array as="points">
              <mxPoint x="735" y="226" />
            </Array>
          </mxGeometry>
        </mxCell>
        <mxCell id="9hTT-3QMh48o3hA_7Nlj-27" value="Request Dispatch Report" style="text;html=1;align=center;verticalAlign=middle;whiteSpace=wrap;rounded=0;" vertex="1" parent="1">
          <mxGeometry x="550" y="200" width="190" height="30" as="geometry" />
        </mxCell>
        <mxCell id="9hTT-3QMh48o3hA_7Nlj-28" style="edgeStyle=orthogonalEdgeStyle;rounded=0;orthogonalLoop=1;jettySize=auto;html=1;entryX=0.636;entryY=0.998;entryDx=0;entryDy=0;entryPerimeter=0;" edge="1" parent="1" source="9hTT-3QMh48o3hA_7Nlj-2" target="9hTT-3QMh48o3hA_7Nlj-6">
          <mxGeometry relative="1" as="geometry">
            <Array as="points">
              <mxPoint x="490" y="330" />
              <mxPoint x="753" y="330" />
            </Array>
          </mxGeometry>
        </mxCell>
        <mxCell id="9hTT-3QMh48o3hA_7Nlj-29" value="Sends Feedback Data" style="text;html=1;align=center;verticalAlign=middle;whiteSpace=wrap;rounded=0;" vertex="1" parent="1">
          <mxGeometry x="565" y="300" width="160" height="30" as="geometry" />
        </mxCell>
        <mxCell id="9hTT-3QMh48o3hA_7Nlj-30" style="edgeStyle=orthogonalEdgeStyle;rounded=0;orthogonalLoop=1;jettySize=auto;html=1;entryX=0.835;entryY=1.029;entryDx=0;entryDy=0;entryPerimeter=0;" edge="1" parent="1" source="9hTT-3QMh48o3hA_7Nlj-2" target="9hTT-3QMh48o3hA_7Nlj-6">
          <mxGeometry relative="1" as="geometry">
            <Array as="points">
              <mxPoint x="470" y="370" />
              <mxPoint x="779" y="370" />
            </Array>
          </mxGeometry>
        </mxCell>
        <mxCell id="9hTT-3QMh48o3hA_7Nlj-35" value="Handle Dispatch&amp;nbsp;" style="text;html=1;align=center;verticalAlign=middle;whiteSpace=wrap;rounded=0;rotation=90;" vertex="1" parent="1">
          <mxGeometry x="370" y="100" width="130" height="30" as="geometry" />
        </mxCell>
        <mxCell id="9hTT-3QMh48o3hA_7Nlj-37" value="" style="endArrow=none;html=1;rounded=0;exitX=0.25;exitY=1;exitDx=0;exitDy=0;entryX=0.306;entryY=0.027;entryDx=0;entryDy=0;entryPerimeter=0;startArrow=classic;startFill=1;endFill=0;" edge="1" parent="1" source="9hTT-3QMh48o3hA_7Nlj-4" target="9hTT-3QMh48o3hA_7Nlj-2">
          <mxGeometry width="50" height="50" relative="1" as="geometry">
            <mxPoint x="340" y="180" as="sourcePoint" />
            <mxPoint x="390" y="130" as="targetPoint" />
          </mxGeometry>
        </mxCell>
        <mxCell id="9hTT-3QMh48o3hA_7Nlj-38" value="Dispatch Report" style="text;html=1;align=center;verticalAlign=middle;whiteSpace=wrap;rounded=0;rotation=90;" vertex="1" parent="1">
          <mxGeometry x="350" y="110" width="110" height="30" as="geometry" />
        </mxCell>
        <mxCell id="9hTT-3QMh48o3hA_7Nlj-39" value="Sends Purchase Report" style="text;html=1;align=center;verticalAlign=middle;whiteSpace=wrap;rounded=0;" vertex="1" parent="1">
          <mxGeometry x="560" y="340" width="130" height="30" as="geometry" />
        </mxCell>
      </root>
    </mxGraphModel>
  </diagram>
</mxfile>
